<mxfile host="65bd71144e">
    <diagram id="7o1HNmeYyrCinwzWfVX5" name="Page-1">
        <mxGraphModel dx="398" dy="1632" grid="0" gridSize="10" guides="1" tooltips="1" connect="1" arrows="1" fold="1" page="1" pageScale="1" pageWidth="827" pageHeight="1169" math="0" shadow="0">
            <root>
                <mxCell id="0"/>
                <mxCell id="1" parent="0"/>
                <mxCell id="18" style="edgeStyle=none;html=1;entryX=0.5;entryY=0;entryDx=0;entryDy=0;strokeColor=#00FFFF;strokeWidth=3;" edge="1" parent="1" source="5" target="15">
                    <mxGeometry relative="1" as="geometry"/>
                </mxCell>
                <mxCell id="21" style="edgeStyle=none;html=1;strokeColor=#00FFFF;strokeWidth=3;" edge="1" parent="1" source="5" target="19">
                    <mxGeometry relative="1" as="geometry"/>
                </mxCell>
                <mxCell id="5" value="PgLoadLastEventRepo" style="rounded=0;whiteSpace=wrap;html=1;strokeWidth=3;fontColor=#ffffff;strokeColor=#001DBC;fillColor=none;" vertex="1" parent="1">
                    <mxGeometry x="105" y="-894" width="148" height="48" as="geometry"/>
                </mxCell>
                <mxCell id="10" value="" style="group" vertex="1" connectable="0" parent="1">
                    <mxGeometry x="84" y="-804" width="366" height="124" as="geometry"/>
                </mxCell>
                <mxCell id="2" value="" style="rounded=0;whiteSpace=wrap;html=1;strokeColor=#2D7600;fontColor=#ffffff;fillColor=none;strokeWidth=3;" vertex="1" parent="10">
                    <mxGeometry y="25.56701030927835" width="366.00000000000006" height="98.43298969072164" as="geometry"/>
                </mxCell>
                <mxCell id="8" value="Domain" style="text;html=1;strokeColor=none;fillColor=none;align=center;verticalAlign=middle;whiteSpace=wrap;rounded=0;" vertex="1" parent="10">
                    <mxGeometry x="325.89041095890417" y="3.8350515463917523" width="40.109589041095894" height="10.22680412371134" as="geometry"/>
                </mxCell>
                <mxCell id="4" value="CheckLastEventStatus" style="rounded=0;whiteSpace=wrap;html=1;strokeWidth=3;fontColor=#ffffff;strokeColor=#001DBC;fillColor=none;" vertex="1" parent="10">
                    <mxGeometry x="13.000273972602743" y="44.103092783505154" width="128.35068493150686" height="61.360824742268036" as="geometry"/>
                </mxCell>
                <mxCell id="11" value="" style="group" vertex="1" connectable="0" parent="1">
                    <mxGeometry x="84" y="-944" width="365" height="125.5" as="geometry"/>
                </mxCell>
                <mxCell id="7" value="&lt;blockquote style=&quot;margin: 0 0 0 40px ; border: none ; padding: 0px&quot;&gt;&lt;blockquote style=&quot;margin: 0 0 0 40px ; border: none ; padding: 0px&quot;&gt;&lt;blockquote style=&quot;margin: 0 0 0 40px ; border: none ; padding: 0px&quot;&gt;&lt;blockquote style=&quot;margin: 0 0 0 40px ; border: none ; padding: 0px&quot;&gt;&lt;br&gt;&lt;/blockquote&gt;&lt;/blockquote&gt;&lt;/blockquote&gt;&lt;/blockquote&gt;" style="rounded=0;whiteSpace=wrap;html=1;strokeColor=#2D7600;fontColor=#ffffff;fillColor=none;strokeWidth=3;" vertex="1" parent="11">
                    <mxGeometry y="26.5" width="365" height="99" as="geometry"/>
                </mxCell>
                <mxCell id="9" value="Infra" style="text;html=1;strokeColor=none;fillColor=none;align=center;verticalAlign=middle;whiteSpace=wrap;rounded=0;" vertex="1" parent="11">
                    <mxGeometry x="325" y="3" width="40" height="8" as="geometry"/>
                </mxCell>
                <mxCell id="15" value="LoadLastEventRepo" style="rounded=0;whiteSpace=wrap;html=1;strokeWidth=3;fontColor=#ffffff;strokeColor=#A50040;fillColor=none;" vertex="1" parent="1">
                    <mxGeometry x="290" y="-756" width="129" height="48" as="geometry"/>
                </mxCell>
                <mxCell id="16" style="edgeStyle=none;html=1;strokeColor=#00FFFF;strokeWidth=3;" edge="1" parent="1" source="4" target="15">
                    <mxGeometry relative="1" as="geometry"/>
                </mxCell>
                <mxCell id="19" value="&lt;font color=&quot;#ffffff&quot;&gt;&lt;b&gt;TypeORM&lt;/b&gt;&lt;/font&gt;" style="rounded=0;whiteSpace=wrap;html=1;strokeColor=#C73500;strokeWidth=3;fontColor=#000000;fillColor=none;" vertex="1" parent="1">
                    <mxGeometry x="214" y="-1056" width="120" height="60" as="geometry"/>
                </mxCell>
            </root>
        </mxGraphModel>
    </diagram>
</mxfile>